<?xml version="1.0" encoding="UTF-8"?>
<svg xmlns="http://www.w3.org/2000/svg" width="100" height="100">
   <g>
      <line x1="0"
            y1="0"
            x2="0"
            y2="400"
            stroke="black"
            stroke-width="1"/>
      <line x1="0"
            y1="400"
            x2="260"
            y2="400"
            stroke="black"
            stroke-width="1"/>
      <text x="20" y="400" transform="rotate(90 20,400)">Is there free circulation of air through and about the building in which you work?</text>
      <text x="40" y="400" transform="rotate(90 40,400)">Are there offensive odors in the rooms occupied by employes[?]</text>
      <text x="60" y="400" transform="rotate(90 60,400)">[If there are offensive odors in the rooms], from what causes?</text>
      <text x="80" y="400" transform="rotate(90 80,400)">Are there facilities for washing?</text>
      <text x="100" y="400" transform="rotate(90 100,400)">Are seats provided, as prescribed by law?</text>
      <text x="120" y="400" transform="rotate(90 120,400)">Are employes furnished with pure drinking water?</text>
      <text x="140" y="400" transform="rotate(90 140,400)">Does the work require the employes to stoop over?</text>
      <text x="160" y="400" transform="rotate(90 160,400)">Are there proper and separate facilities for change of dress by males and females?</text>
      <text x="180" y="400" transform="rotate(90 180,400)">Are there separate water-closets for males and females[?]</text>
      <text x="200" y="400" transform="rotate(90 200,400)">Are there stairways from the windows outside?</text>
      <text x="220" y="400" transform="rotate(90 220,400)">Are the rooms supplied with water pipes?</text>
      <text x="240" y="400" transform="rotate(90 240,400)">Are there hose attachments?</text>
      <text x="260" y="400" transform="rotate(90 260,400)">Are employees compelled to stand or sit at their work?</text>
      <text x="280" y="400" transform="rotate(90 280,400)">Are there water tanks and buckets on each floor?</text>
   </g>
</svg>
