<svg xmlns="http://www.w3.org/2000/svg"
    width="600"
    height="250"
    viewBox="-250 50 600 400">
    <g>
        <line x1="0"
            y1="-103"
            x2="0"
            y2="400"
            stroke="black"
            stroke-width="3"/>
        <line x1="0"
            y1="400"
            x2="180"
            y2="400"
            stroke="black"
            stroke-width="3"/>
        <text x="40" y="420">1</text>
        <line x1="40"
            y1="400"
            x2="40"
            y2="-19"
            stroke="black"
            stroke-width="3"/>
        <text x="40" y="-24" text-anchor="middle" class="value">19</text>
        <text x="60" y="420">2</text>
        <line x1="60"
            y1="400"
            x2="60"
            y2="-40"
            stroke="black"
            stroke-width="3"/>
        <text x="60" y="-45" text-anchor="middle" class="value">40</text>
        <text x="80" y="420">3</text>
        <line x1="80"
            y1="400"
            x2="80"
            y2="-88"
            stroke="black"
            stroke-width="3"/>
        <text x="80" y="-93" text-anchor="middle" class="value">88</text>
        <text x="100" y="420">4</text>
        <line x1="100"
            y1="400"
            x2="100"
            y2="-52"
            stroke="black"
            stroke-width="3"/>
        <text x="100" y="-57" text-anchor="middle" class="value">52</text>
        <text x="120" y="420">5</text>
        <line x1="120"
            y1="400"
            x2="120"
            y2="-10"
            stroke="black"
            stroke-width="3"/>
        <text x="120" y="-15" text-anchor="middle" class="value">10</text>
        <text x="140" y="420">7</text>
        <line x1="140"
            y1="400"
            x2="140"
            y2="-24"
            stroke="black"
            stroke-width="3"/>
        <text x="140" y="-29" text-anchor="middle" class="value">24</text>
        <text x="160" y="420">8</text>
        <line x1="160"
            y1="400"
            x2="160"
            y2="-24"
            stroke="black"
            stroke-width="3"/>
        <text x="160" y="-29" text-anchor="middle" class="value">24</text>
        <text x="50" y="460" class="label">Converstaion Number</text>
        <text x="-40" y="400" transform="rotate(270 -40,400)" class="label">Number of Contractions Used in Each Conversation</text>
    </g>
</svg>