<?xml version="1.0" encoding="UTF-8"?>
<svg xmlns="http://www.w3.org/2000/svg"
     width="1800"
     height="250"
     viewBox="0 0 1800 250">
   <g>
      <line x1="0"
            y1="0"
            x2="1200"
            y2="0"
            stroke-width="3"
            stroke="black"/>
      <line x1="0"
            y1="0"
            x2="0"
            y2="-590"
            stroke-width="3"
            stroke="black"/>
      <text x="-10" y="-10" fill="black" text-anchor="middle">1</text>
      <line x1="0"
            y1="-10"
            x2="1200"
            y2="-10"
            stroke="black"
            stroke-width=".5"
            stroke-dasharray="5"/>
      <text x="-10" y="-20" fill="black" text-anchor="middle">2</text>
      <line x1="0"
            y1="-20"
            x2="1200"
            y2="-20"
            stroke="black"
            stroke-width=".5"
            stroke-dasharray="5"/>
      <text x="-10" y="-30" fill="black" text-anchor="middle">3</text>
      <line x1="0"
            y1="-30"
            x2="1200"
            y2="-30"
            stroke="black"
            stroke-width=".5"
            stroke-dasharray="5"/>
      <text x="-10" y="-40" fill="black" text-anchor="middle">4</text>
      <line x1="0"
            y1="-40"
            x2="1200"
            y2="-40"
            stroke="black"
            stroke-width=".5"
            stroke-dasharray="5"/>
      <text x="-10" y="-50" fill="black" text-anchor="middle">5</text>
      <line x1="0"
            y1="-50"
            x2="1200"
            y2="-50"
            stroke="black"
            stroke-width=".5"
            stroke-dasharray="5"/>
      <text x="-10" y="-60" fill="black" text-anchor="middle">6</text>
      <line x1="0"
            y1="-60"
            x2="1200"
            y2="-60"
            stroke="black"
            stroke-width=".5"
            stroke-dasharray="5"/>
      <text x="-10" y="-70" fill="black" text-anchor="middle">7</text>
      <line x1="0"
            y1="-70"
            x2="1200"
            y2="-70"
            stroke="black"
            stroke-width=".5"
            stroke-dasharray="5"/>
      <text x="-10" y="-80" fill="black" text-anchor="middle">8</text>
      <line x1="0"
            y1="-80"
            x2="1200"
            y2="-80"
            stroke="black"
            stroke-width=".5"
            stroke-dasharray="5"/>
      <text x="-10" y="-90" fill="black" text-anchor="middle">9</text>
      <line x1="0"
            y1="-90"
            x2="1200"
            y2="-90"
            stroke="black"
            stroke-width=".5"
            stroke-dasharray="5"/>
      <text x="-10" y="-100" fill="black" text-anchor="middle">10</text>
      <line x1="0"
            y1="-100"
            x2="1200"
            y2="-100"
            stroke="black"
            stroke-width=".5"
            stroke-dasharray="5"/>
      <text x="-10" y="-110" fill="black" text-anchor="middle">11</text>
      <line x1="0"
            y1="-110"
            x2="1200"
            y2="-110"
            stroke="black"
            stroke-width=".5"
            stroke-dasharray="5"/>
      <text x="-10" y="-120" fill="black" text-anchor="middle">12</text>
      <line x1="0"
            y1="-120"
            x2="1200"
            y2="-120"
            stroke="black"
            stroke-width=".5"
            stroke-dasharray="5"/>
      <text x="-10" y="-130" fill="black" text-anchor="middle">13</text>
      <line x1="0"
            y1="-130"
            x2="1200"
            y2="-130"
            stroke="black"
            stroke-width=".5"
            stroke-dasharray="5"/>
      <text x="-10" y="-140" fill="black" text-anchor="middle">14</text>
      <line x1="0"
            y1="-140"
            x2="1200"
            y2="-140"
            stroke="black"
            stroke-width=".5"
            stroke-dasharray="5"/>
      <text x="-10" y="-150" fill="black" text-anchor="middle">15</text>
      <line x1="0"
            y1="-150"
            x2="1200"
            y2="-150"
            stroke="black"
            stroke-width=".5"
            stroke-dasharray="5"/>
      <text x="-10" y="-160" fill="black" text-anchor="middle">16</text>
      <line x1="0"
            y1="-160"
            x2="1200"
            y2="-160"
            stroke="black"
            stroke-width=".5"
            stroke-dasharray="5"/>
      <text x="-10" y="-170" fill="black" text-anchor="middle">17</text>
      <line x1="0"
            y1="-170"
            x2="1200"
            y2="-170"
            stroke="black"
            stroke-width=".5"
            stroke-dasharray="5"/>
      <text x="-10" y="-180" fill="black" text-anchor="middle">18</text>
      <line x1="0"
            y1="-180"
            x2="1200"
            y2="-180"
            stroke="black"
            stroke-width=".5"
            stroke-dasharray="5"/>
      <text x="-10" y="-190" fill="black" text-anchor="middle">19</text>
      <line x1="0"
            y1="-190"
            x2="1200"
            y2="-190"
            stroke="black"
            stroke-width=".5"
            stroke-dasharray="5"/>
      <text x="-10" y="-200" fill="black" text-anchor="middle">20</text>
      <line x1="0"
            y1="-200"
            x2="1200"
            y2="-200"
            stroke="black"
            stroke-width=".5"
            stroke-dasharray="5"/>
      <text x="-10" y="-210" fill="black" text-anchor="middle">21</text>
      <line x1="0"
            y1="-210"
            x2="1200"
            y2="-210"
            stroke="black"
            stroke-width=".5"
            stroke-dasharray="5"/>
      <text x="-10" y="-220" fill="black" text-anchor="middle">22</text>
      <line x1="0"
            y1="-220"
            x2="1200"
            y2="-220"
            stroke="black"
            stroke-width=".5"
            stroke-dasharray="5"/>
      <text x="-10" y="-230" fill="black" text-anchor="middle">23</text>
      <line x1="0"
            y1="-230"
            x2="1200"
            y2="-230"
            stroke="black"
            stroke-width=".5"
            stroke-dasharray="5"/>
      <text x="-10" y="-240" fill="black" text-anchor="middle">24</text>
      <line x1="0"
            y1="-240"
            x2="1200"
            y2="-240"
            stroke="black"
            stroke-width=".5"
            stroke-dasharray="5"/>
      <text x="-10" y="-250" fill="black" text-anchor="middle">25</text>
      <line x1="0"
            y1="-250"
            x2="1200"
            y2="-250"
            stroke="black"
            stroke-width=".5"
            stroke-dasharray="5"/>
      <text x="-10" y="-260" fill="black" text-anchor="middle">26</text>
      <line x1="0"
            y1="-260"
            x2="1200"
            y2="-260"
            stroke="black"
            stroke-width=".5"
            stroke-dasharray="5"/>
      <text x="-10" y="-270" fill="black" text-anchor="middle">27</text>
      <line x1="0"
            y1="-270"
            x2="1200"
            y2="-270"
            stroke="black"
            stroke-width=".5"
            stroke-dasharray="5"/>
      <text x="-10" y="-280" fill="black" text-anchor="middle">28</text>
      <line x1="0"
            y1="-280"
            x2="1200"
            y2="-280"
            stroke="black"
            stroke-width=".5"
            stroke-dasharray="5"/>
      <text x="-10" y="-290" fill="black" text-anchor="middle">29</text>
      <line x1="0"
            y1="-290"
            x2="1200"
            y2="-290"
            stroke="black"
            stroke-width=".5"
            stroke-dasharray="5"/>
      <text x="-10" y="-300" fill="black" text-anchor="middle">30</text>
      <line x1="0"
            y1="-300"
            x2="1200"
            y2="-300"
            stroke="black"
            stroke-width=".5"
            stroke-dasharray="5"/>
      <text x="-10" y="-310" fill="black" text-anchor="middle">31</text>
      <line x1="0"
            y1="-310"
            x2="1200"
            y2="-310"
            stroke="black"
            stroke-width=".5"
            stroke-dasharray="5"/>
      <text x="-10" y="-320" fill="black" text-anchor="middle">32</text>
      <line x1="0"
            y1="-320"
            x2="1200"
            y2="-320"
            stroke="black"
            stroke-width=".5"
            stroke-dasharray="5"/>
      <text x="-10" y="-330" fill="black" text-anchor="middle">33</text>
      <line x1="0"
            y1="-330"
            x2="1200"
            y2="-330"
            stroke="black"
            stroke-width=".5"
            stroke-dasharray="5"/>
      <text x="-10" y="-340" fill="black" text-anchor="middle">34</text>
      <line x1="0"
            y1="-340"
            x2="1200"
            y2="-340"
            stroke="black"
            stroke-width=".5"
            stroke-dasharray="5"/>
      <text x="-10" y="-350" fill="black" text-anchor="middle">35</text>
      <line x1="0"
            y1="-350"
            x2="1200"
            y2="-350"
            stroke="black"
            stroke-width=".5"
            stroke-dasharray="5"/>
      <text x="-10" y="-360" fill="black" text-anchor="middle">36</text>
      <line x1="0"
            y1="-360"
            x2="1200"
            y2="-360"
            stroke="black"
            stroke-width=".5"
            stroke-dasharray="5"/>
      <text x="-10" y="-370" fill="black" text-anchor="middle">37</text>
      <line x1="0"
            y1="-370"
            x2="1200"
            y2="-370"
            stroke="black"
            stroke-width=".5"
            stroke-dasharray="5"/>
      <text x="-10" y="-380" fill="black" text-anchor="middle">38</text>
      <line x1="0"
            y1="-380"
            x2="1200"
            y2="-380"
            stroke="black"
            stroke-width=".5"
            stroke-dasharray="5"/>
      <text x="-10" y="-390" fill="black" text-anchor="middle">39</text>
      <line x1="0"
            y1="-390"
            x2="1200"
            y2="-390"
            stroke="black"
            stroke-width=".5"
            stroke-dasharray="5"/>
      <text x="-10" y="-400" fill="black" text-anchor="middle">40</text>
      <line x1="0"
            y1="-400"
            x2="1200"
            y2="-400"
            stroke="black"
            stroke-width=".5"
            stroke-dasharray="5"/>
      <text x="-10" y="-410" fill="black" text-anchor="middle">41</text>
      <line x1="0"
            y1="-410"
            x2="1200"
            y2="-410"
            stroke="black"
            stroke-width=".5"
            stroke-dasharray="5"/>
      <text x="-10" y="-420" fill="black" text-anchor="middle">42</text>
      <line x1="0"
            y1="-420"
            x2="1200"
            y2="-420"
            stroke="black"
            stroke-width=".5"
            stroke-dasharray="5"/>
      <text x="-10" y="-430" fill="black" text-anchor="middle">43</text>
      <line x1="0"
            y1="-430"
            x2="1200"
            y2="-430"
            stroke="black"
            stroke-width=".5"
            stroke-dasharray="5"/>
      <text x="-10" y="-440" fill="black" text-anchor="middle">44</text>
      <line x1="0"
            y1="-440"
            x2="1200"
            y2="-440"
            stroke="black"
            stroke-width=".5"
            stroke-dasharray="5"/>
      <text x="-10" y="-450" fill="black" text-anchor="middle">45</text>
      <line x1="0"
            y1="-450"
            x2="1200"
            y2="-450"
            stroke="black"
            stroke-width=".5"
            stroke-dasharray="5"/>
      <text x="-10" y="-460" fill="black" text-anchor="middle">46</text>
      <line x1="0"
            y1="-460"
            x2="1200"
            y2="-460"
            stroke="black"
            stroke-width=".5"
            stroke-dasharray="5"/>
      <text x="-10" y="-470" fill="black" text-anchor="middle">47</text>
      <line x1="0"
            y1="-470"
            x2="1200"
            y2="-470"
            stroke="black"
            stroke-width=".5"
            stroke-dasharray="5"/>
      <text x="-10" y="-480" fill="black" text-anchor="middle">48</text>
      <line x1="0"
            y1="-480"
            x2="1200"
            y2="-480"
            stroke="black"
            stroke-width=".5"
            stroke-dasharray="5"/>
      <text x="-10" y="-490" fill="black" text-anchor="middle">49</text>
      <line x1="0"
            y1="-490"
            x2="1200"
            y2="-490"
            stroke="black"
            stroke-width=".5"
            stroke-dasharray="5"/>
      <text x="-10" y="-500" fill="black" text-anchor="middle">50</text>
      <line x1="0"
            y1="-500"
            x2="1200"
            y2="-500"
            stroke="black"
            stroke-width=".5"
            stroke-dasharray="5"/>
      <text x="-10" y="-510" fill="black" text-anchor="middle">51</text>
      <line x1="0"
            y1="-510"
            x2="1200"
            y2="-510"
            stroke="black"
            stroke-width=".5"
            stroke-dasharray="5"/>
      <text x="-10" y="-520" fill="black" text-anchor="middle">52</text>
      <line x1="0"
            y1="-520"
            x2="1200"
            y2="-520"
            stroke="black"
            stroke-width=".5"
            stroke-dasharray="5"/>
      <text x="-10" y="-530" fill="black" text-anchor="middle">53</text>
      <line x1="0"
            y1="-530"
            x2="1200"
            y2="-530"
            stroke="black"
            stroke-width=".5"
            stroke-dasharray="5"/>
      <text x="-10" y="-540" fill="black" text-anchor="middle">54</text>
      <line x1="0"
            y1="-540"
            x2="1200"
            y2="-540"
            stroke="black"
            stroke-width=".5"
            stroke-dasharray="5"/>
      <text x="-10" y="-550" fill="black" text-anchor="middle">55</text>
      <line x1="0"
            y1="-550"
            x2="1200"
            y2="-550"
            stroke="black"
            stroke-width=".5"
            stroke-dasharray="5"/>
      <text x="-10" y="-560" fill="black" text-anchor="middle">56</text>
      <line x1="0"
            y1="-560"
            x2="1200"
            y2="-560"
            stroke="black"
            stroke-width=".5"
            stroke-dasharray="5"/>
      <text x="-10" y="-570" fill="black" text-anchor="middle">57</text>
      <line x1="0"
            y1="-570"
            x2="1200"
            y2="-570"
            stroke="black"
            stroke-width=".5"
            stroke-dasharray="5"/>
      <text x="-10" y="-580" fill="black" text-anchor="middle">58</text>
      <line x1="0"
            y1="-580"
            x2="1200"
            y2="-580"
            stroke="black"
            stroke-width=".5"
            stroke-dasharray="5"/>
      <text x="50" y="15" fill="red" text-anchor="middle">1</text>
      <circle cx="50" cy="0" r="3" fill="black"/>
      <text x="150" y="15" fill="red" text-anchor="middle">2</text>
      <circle cx="150" cy="0" r="3" fill="black"/>
      <text x="250" y="15" fill="red" text-anchor="middle">3</text>
      <circle cx="250" cy="0" r="3" fill="black"/>
      <text x="350" y="15" fill="red" text-anchor="middle">4</text>
      <circle cx="350" cy="-10" r="3" fill="black"/>
      <text x="450" y="15" fill="red" text-anchor="middle">5</text>
      <circle cx="450" cy="0" r="3" fill="black"/>
      <text x="550" y="15" fill="red" text-anchor="middle">6</text>
      <circle cx="550" cy="-30" r="3" fill="black"/>
      <text x="650" y="15" fill="red" text-anchor="middle">7</text>
      <circle cx="650" cy="-10" r="3" fill="black"/>
      <text x="750" y="15" fill="red" text-anchor="middle">8</text>
      <circle cx="750" cy="0" r="3" fill="black"/>
      <text x="850" y="15" fill="red" text-anchor="middle">9</text>
      <circle cx="850" cy="0" r="3" fill="black"/>
      <text x="950" y="15" fill="red" text-anchor="middle">10</text>
      <circle cx="950" cy="0" r="3" fill="black"/>
      <text x="1050" y="15" fill="red" text-anchor="middle">11</text>
      <circle cx="1050" cy="0" r="3" fill="black"/>
      <text x="1150" y="15" fill="red" text-anchor="middle">12</text>
      <circle cx="1150" cy="0" r="3" fill="black"/>
   </g>
</svg>
